<svg id="Layer_1" data-name="Layer 1" xmlns="http://www.w3.org/2000/svg" viewBox="0 0 512 512"><defs><style>.cls-1{fill:#05331e;}.cls-2{fill:#c1af6c;}.cls-3{fill:#fcdb0f;}.cls-4,.cls-5{fill:none;stroke:#05331e;stroke-linecap:round;}.cls-4{stroke-width:1.25px;}.cls-5{stroke-width:1.25px;}</style></defs><title>Artboard 1svg</title><rect class="cls-1" x="0.5" y="0.5" width="511" height="511"/><path d="M511,1V511H1V1H511m1-1H0V512H512V0Z"/><g id="g4327"><path id="path4021" class="cls-2" d="M263,309c-2.36,0-13.56-13.56-21.7-21.69,0-5.43,4.56-13.25.08-12.94-44,3-77,15.59-77,30.65,0,8.68,11,16.54,28.66,22.23s42.16,9.22,69.15,9.22,51.43-3.53,69.11-9.22,28.62-13.55,28.62-22.23c0-15.05-32.89-27.58-76.84-30.64-4.79-.34-1.05,7.5-1.05,12.93C273.8,295.42,265,309,263,309Z"/><path id="rect3995" class="cls-2" d="M252.1,162.52v48.82c0,27.12-8.14,46.11-27.12,67.81l36.27,46.11,37-46.11c-19-21.7-27.12-40.69-27.12-67.81V162.52Zm9.49,94.42A17.63,17.63,0,1,1,244,274.57,17.63,17.63,0,0,1,261.59,256.94Zm0,5.43a12.21,12.21,0,1,0,12.21,12.2A12.2,12.2,0,0,0,261.59,262.37Z"/><path id="path4051" class="cls-3" d="M145.88,359.67c0-13.6,51.81-24.62,115.73-24.62s115.72,11,115.72,24.62"/><g id="g3004"><circle id="path3802" class="cls-2" cx="261.61" cy="133.93" r="21.44" transform="translate(72.47 358.88) rotate(-77.05)"/><circle id="path3802-7" class="cls-2" cx="291.98" cy="168.27" r="21.44" transform="translate(62.58 415.14) rotate(-77.05)"/><path id="path3802-7-4" class="cls-2" d="M252.67,168.27a21.44,21.44,0,1,1-21.44-21.44A21.44,21.44,0,0,1,252.67,168.27Z"/></g><path id="path3855-9" class="cls-2" d="M293.68,168.27,262,132.8l-31.7,35.47,31.7,14Z"/><path id="path3875-4-7" class="cls-2" d="M97.16,189.64c7.1,27.24,17.21,63,26.44,94.85a17.4,17.4,0,0,1,3.48-.34,17.65,17.65,0,0,1,6.44,34.07c6.89,23.42,12.38,41.87,12.38,41.87,0,13.18,51.78,24.16,115.69,24.16s115.77-11,115.79-24.16c0,0,5.4-18.48,12.29-41.87a17.65,17.65,0,0,1,6.44-34.07,17.23,17.23,0,0,1,3.47.34c9.24-31.88,19.42-67.59,26.53-94.85l-4.37-16.27-13.57,11.78-5.42-.93-1.05,5.42V203.2c.76,43.39-23.78,71-47.55,89.85H169c-23.76-18.86-48.22-46.46-47.46-89.85V189.64s-1-4.66-2.82-2.62c-.69.78-3.46-.8-3.46-.8.66.14-2.53.63-12.41-8.18Zm300.9,100.1a12.51,12.51,0,0,0-1.95-.17,12.17,12.17,0,0,0-4.83,23.35M132,313a12.21,12.21,0,0,0-4.9-23.39,12.87,12.87,0,0,0-1.87.17"/><g id="g3989"><path id="path3802-7-0-2" class="cls-2" d="M93.12,149.21a22.13,22.13,0,1,0,15.68,37.72l7.72,4.32A22,22,0,1,0,123,175.57a97.3,97.3,0,0,0-7.72,8.56c0-5.55,0-10.74,0-12.8A22.11,22.11,0,0,0,93.12,149.21Z"/></g><path class="cls-4" d="M172.23,295.24c-15.44,17.36-27.5,51.55-27.5,51.55"/><path id="path3859" class="cls-5" d="M233.83,276.3l27.8,44.11,27.75-44.11"/><path id="path3802-7-0-2-16" class="cls-2" d="M429.88,149.21a22.12,22.12,0,0,0-22.13,22.12c0,2.06,0,7.25,0,12.8a96.22,96.22,0,0,0-7.71-8.56,22.18,22.18,0,1,0,6.44,15.68l7.72-4.32a22.12,22.12,0,1,0,15.68-37.72Z"/><path id="path3835-4" class="cls-4" d="M350.76,295.1c15.44,17.36,27.5,51.54,27.5,51.54"/></g></svg>